<svg width="925" height="312" viewBox="0 0 925 312" fill="none" xmlns="http://www.w3.org/2000/svg">
<path d="M448.03 204V111.12H504.79V128.664H465.574V148.788H497.05V166.332H465.574V204H448.03ZM517.725 124.665V109.185H535.269V124.665H517.725ZM517.725 204V134.34H535.269V204H517.725ZM602.078 204V171.105C602.078 169.514 601.992 167.493 601.82 165.042C601.648 162.548 601.111 160.054 600.208 157.56C599.305 155.066 597.821 152.98 595.757 151.303C593.736 149.626 590.855 148.788 587.114 148.788C585.609 148.788 583.997 149.024 582.277 149.497C580.557 149.97 578.944 150.895 577.439 152.271C575.934 153.604 574.687 155.582 573.698 158.205C572.752 160.828 572.279 164.311 572.279 168.654L562.217 163.881C562.217 158.377 563.335 153.217 565.571 148.401C567.807 143.585 571.161 139.693 575.633 136.726C580.148 133.759 585.824 132.276 592.661 132.276C598.122 132.276 602.573 133.2 606.013 135.049C609.453 136.898 612.119 139.242 614.011 142.08C615.946 144.918 617.322 147.885 618.139 150.981C618.956 154.034 619.45 156.829 619.622 159.366C619.794 161.903 619.88 163.752 619.88 164.913V204H602.078ZM554.477 204V134.34H570.086V157.431H572.279V204H554.477ZM636.617 204V111.12H675.833C676.736 111.12 677.94 111.163 679.445 111.249C680.993 111.292 682.369 111.421 683.573 111.636C689.12 112.496 693.656 114.323 697.182 117.118C700.751 119.913 703.374 123.439 705.051 127.696C706.728 131.91 707.567 136.619 707.567 141.822C707.567 147.025 706.707 151.755 704.987 156.012C703.31 160.226 700.687 163.73 697.118 166.525C693.592 169.32 689.077 171.148 683.573 172.008C682.369 172.18 680.993 172.309 679.445 172.395C677.897 172.481 676.693 172.524 675.833 172.524H654.161V204H636.617ZM654.161 156.141H675.059C675.962 156.141 676.951 156.098 678.026 156.012C679.101 155.926 680.09 155.754 680.993 155.496C683.358 154.851 685.185 153.776 686.475 152.271C687.765 150.723 688.647 149.024 689.12 147.175C689.636 145.283 689.894 143.499 689.894 141.822C689.894 140.145 689.636 138.382 689.12 136.533C688.647 134.641 687.765 132.942 686.475 131.438C685.185 129.889 683.358 128.793 680.993 128.148C680.09 127.89 679.101 127.718 678.026 127.632C676.951 127.546 675.962 127.503 675.059 127.503H654.161V156.141ZM738.482 205.935C733.494 205.935 729.258 204.989 725.775 203.097C722.335 201.162 719.712 198.603 717.906 195.421C716.143 192.196 715.262 188.649 715.262 184.779C715.262 181.554 715.756 178.608 716.745 175.942C717.734 173.276 719.325 170.933 721.518 168.912C723.754 166.848 726.743 165.128 730.484 163.752C733.064 162.806 736.138 161.967 739.707 161.236C743.276 160.505 747.318 159.817 751.833 159.172C756.348 158.484 761.315 157.732 766.733 156.915L760.412 160.398C760.412 156.27 759.423 153.238 757.445 151.303C755.467 149.368 752.156 148.401 747.512 148.401C744.932 148.401 742.244 149.024 739.449 150.271C736.654 151.518 734.698 153.733 733.58 156.915L717.713 151.884C719.476 146.122 722.787 141.435 727.646 137.823C732.505 134.211 739.127 132.405 747.512 132.405C753.661 132.405 759.122 133.351 763.895 135.243C768.668 137.135 772.28 140.403 774.731 145.047C776.107 147.627 776.924 150.207 777.182 152.787C777.44 155.367 777.569 158.248 777.569 161.43V204H762.218V189.681L764.411 192.648C761.014 197.335 757.337 200.732 753.381 202.839C749.468 204.903 744.502 205.935 738.482 205.935ZM742.223 192.132C745.448 192.132 748.157 191.573 750.35 190.455C752.586 189.294 754.349 187.982 755.639 186.52C756.972 185.058 757.875 183.833 758.348 182.844C759.251 180.952 759.767 178.759 759.896 176.265C760.068 173.728 760.154 171.621 760.154 169.944L765.314 171.234C760.111 172.094 755.897 172.825 752.672 173.427C749.447 173.986 746.845 174.502 744.867 174.975C742.889 175.448 741.148 175.964 739.643 176.523C737.923 177.211 736.525 177.963 735.45 178.78C734.418 179.554 733.644 180.414 733.128 181.36C732.655 182.306 732.419 183.36 732.419 184.521C732.419 186.112 732.806 187.488 733.58 188.649C734.397 189.767 735.536 190.627 736.998 191.229C738.46 191.831 740.202 192.132 742.223 192.132ZM836.136 204C831.32 204.903 826.59 205.29 821.946 205.161C817.345 205.075 813.217 204.28 809.562 202.774C805.95 201.226 803.198 198.754 801.306 195.357C799.586 192.175 798.683 188.95 798.597 185.682C798.511 182.371 798.468 178.63 798.468 174.459V114.99H816.012V173.427C816.012 176.136 816.033 178.587 816.076 180.78C816.162 182.93 816.614 184.65 817.431 185.94C818.979 188.391 821.451 189.724 824.848 189.939C828.245 190.154 832.008 189.982 836.136 189.423V204ZM786.6 147.885V134.34H836.136V147.885H786.6ZM899.131 204V171.105C899.131 169.514 899.045 167.493 898.873 165.042C898.701 162.548 898.163 160.054 897.26 157.56C896.357 155.066 894.874 152.98 892.81 151.303C890.789 149.626 887.908 148.788 884.167 148.788C882.662 148.788 881.049 149.024 879.329 149.497C877.609 149.97 875.997 150.895 874.492 152.271C872.987 153.604 871.74 155.582 870.751 158.205C869.805 160.828 869.332 164.311 869.332 168.654L859.27 163.881C859.27 158.377 860.388 153.217 862.624 148.401C864.86 143.585 868.214 139.693 872.686 136.726C877.201 133.759 882.877 132.276 889.714 132.276C895.175 132.276 899.625 133.2 903.065 135.049C906.505 136.898 909.171 139.242 911.063 142.08C912.998 144.918 914.374 147.885 915.191 150.981C916.008 154.034 916.503 156.829 916.675 159.366C916.847 161.903 916.933 163.752 916.933 164.913V204H899.131ZM851.53 204V111.12H867.139V158.85H869.332V204H851.53Z" fill="#0F172A"/>
<path d="M82.5 311.5H111L150.5 268.5H128.5L82.5 311.5Z" fill="#0F172A"/>
<path d="M147 252H165.5L207.5 206.5H195.5L147 252Z" fill="#0F172A"/>
<path d="M0 311.5H27L190.5 191.5H239.5L375 46.5L365.5 38L415.5 22L395.61 46.5L258 216H223.5L164.5 311.5H182.5L222.5 246.5H274.5L401 85L420.5 101.5L433 0L335 31L353.5 47.5L233.5 176.5H184.5L0 311.5Z" fill="#0F172A"/>
<path d="M227.5 165.5L269.5 121V52.5H227L227.5 165.5Z" fill="#0F172A"/>
<path d="M170.5 174L181.5 165.5H212V100.5H170.5V174Z" fill="#0F172A"/>
<path d="M113.5 216L155.5 184.5V140.5H113.5V216Z" fill="#0F172A"/>
<path d="M375 46.5L239.5 191.5L228.5 205.5H251.5L395.61 46.5L415.5 22L365.5 38L375 46.5Z" fill="#10B981"/>
<path d="M285 105.5L326 61.5V3H285V105.5Z" fill="#10B981"/>
</svg>
