<svg width="561" height="555" viewBox="0 0 561 555" fill="none" xmlns="http://www.w3.org/2000/svg">
<rect width="561" height="555" rx="46" fill="white"/>
<path d="M47.03 479.5V386.62H103.79V404.164H64.574V424.288H96.05V441.832H64.574V479.5H47.03ZM116.725 400.165V384.685H134.269V400.165H116.725ZM116.725 479.5V409.84H134.269V479.5H116.725ZM201.078 479.5V446.605C201.078 445.014 200.992 442.993 200.82 440.542C200.648 438.048 200.111 435.554 199.208 433.06C198.305 430.566 196.821 428.48 194.757 426.803C192.736 425.126 189.855 424.288 186.114 424.288C184.609 424.288 182.997 424.524 181.277 424.997C179.557 425.47 177.944 426.395 176.439 427.771C174.934 429.104 173.687 431.082 172.698 433.705C171.752 436.328 171.279 439.811 171.279 444.154L161.217 439.381C161.217 433.877 162.335 428.717 164.571 423.901C166.807 419.085 170.161 415.193 174.633 412.226C179.148 409.259 184.824 407.776 191.661 407.776C197.122 407.776 201.573 408.7 205.013 410.549C208.453 412.398 211.119 414.742 213.011 417.58C214.946 420.418 216.322 423.385 217.139 426.481C217.956 429.534 218.45 432.329 218.622 434.866C218.794 437.403 218.88 439.252 218.88 440.413V479.5H201.078ZM153.477 479.5V409.84H169.086V432.931H171.279V479.5H153.477ZM235.617 479.5V386.62H274.833C275.736 386.62 276.94 386.663 278.445 386.749C279.993 386.792 281.369 386.921 282.573 387.136C288.12 387.996 292.656 389.823 296.182 392.618C299.751 395.413 302.374 398.939 304.051 403.196C305.728 407.41 306.567 412.119 306.567 417.322C306.567 422.525 305.707 427.255 303.987 431.512C302.31 435.726 299.687 439.23 296.118 442.025C292.592 444.82 288.077 446.648 282.573 447.508C281.369 447.68 279.993 447.809 278.445 447.895C276.897 447.981 275.693 448.024 274.833 448.024H253.161V479.5H235.617ZM253.161 431.641H274.059C274.962 431.641 275.951 431.598 277.026 431.512C278.101 431.426 279.09 431.254 279.993 430.996C282.358 430.351 284.185 429.276 285.475 427.771C286.765 426.223 287.647 424.524 288.12 422.675C288.636 420.783 288.894 418.999 288.894 417.322C288.894 415.645 288.636 413.882 288.12 412.033C287.647 410.141 286.765 408.442 285.475 406.938C284.185 405.389 282.358 404.293 279.993 403.648C279.09 403.39 278.101 403.218 277.026 403.132C275.951 403.046 274.962 403.003 274.059 403.003H253.161V431.641ZM337.482 481.435C332.494 481.435 328.258 480.489 324.775 478.597C321.335 476.662 318.712 474.103 316.906 470.921C315.143 467.696 314.262 464.149 314.262 460.279C314.262 457.054 314.756 454.108 315.745 451.442C316.734 448.776 318.325 446.433 320.518 444.412C322.754 442.348 325.743 440.628 329.484 439.252C332.064 438.306 335.138 437.467 338.707 436.736C342.276 436.005 346.318 435.317 350.833 434.672C355.348 433.984 360.315 433.232 365.733 432.415L359.412 435.898C359.412 431.77 358.423 428.738 356.445 426.803C354.467 424.868 351.156 423.901 346.512 423.901C343.932 423.901 341.244 424.524 338.449 425.771C335.654 427.018 333.698 429.233 332.58 432.415L316.713 427.384C318.476 421.622 321.787 416.935 326.646 413.323C331.505 409.711 338.127 407.905 346.512 407.905C352.661 407.905 358.122 408.851 362.895 410.743C367.668 412.635 371.28 415.903 373.731 420.547C375.107 423.127 375.924 425.707 376.182 428.287C376.44 430.867 376.569 433.748 376.569 436.93V479.5H361.218V465.181L363.411 468.148C360.014 472.835 356.337 476.232 352.381 478.339C348.468 480.403 343.502 481.435 337.482 481.435ZM341.223 467.632C344.448 467.632 347.157 467.073 349.35 465.955C351.586 464.794 353.349 463.482 354.639 462.02C355.972 460.558 356.875 459.333 357.348 458.344C358.251 456.452 358.767 454.259 358.896 451.765C359.068 449.228 359.154 447.121 359.154 445.444L364.314 446.734C359.111 447.594 354.897 448.325 351.672 448.927C348.447 449.486 345.845 450.002 343.867 450.475C341.889 450.948 340.148 451.464 338.643 452.023C336.923 452.711 335.525 453.463 334.45 454.28C333.418 455.054 332.644 455.914 332.128 456.86C331.655 457.806 331.419 458.86 331.419 460.021C331.419 461.612 331.806 462.988 332.58 464.149C333.397 465.267 334.536 466.127 335.998 466.729C337.46 467.331 339.202 467.632 341.223 467.632ZM435.136 479.5C430.32 480.403 425.59 480.79 420.946 480.661C416.345 480.575 412.217 479.78 408.562 478.274C404.95 476.726 402.198 474.254 400.306 470.857C398.586 467.675 397.683 464.45 397.597 461.182C397.511 457.871 397.468 454.13 397.468 449.959V390.49H415.012V448.927C415.012 451.636 415.033 454.087 415.076 456.28C415.162 458.43 415.614 460.15 416.431 461.44C417.979 463.891 420.451 465.224 423.848 465.439C427.245 465.654 431.008 465.482 435.136 464.923V479.5ZM385.6 423.385V409.84H435.136V423.385H385.6ZM498.131 479.5V446.605C498.131 445.014 498.045 442.993 497.873 440.542C497.701 438.048 497.163 435.554 496.26 433.06C495.357 430.566 493.874 428.48 491.81 426.803C489.789 425.126 486.908 424.288 483.167 424.288C481.662 424.288 480.049 424.524 478.329 424.997C476.609 425.47 474.997 426.395 473.492 427.771C471.987 429.104 470.74 431.082 469.751 433.705C468.805 436.328 468.332 439.811 468.332 444.154L458.27 439.381C458.27 433.877 459.388 428.717 461.624 423.901C463.86 419.085 467.214 415.193 471.686 412.226C476.201 409.259 481.877 407.776 488.714 407.776C494.175 407.776 498.625 408.7 502.065 410.549C505.505 412.398 508.171 414.742 510.063 417.58C511.998 420.418 513.374 423.385 514.191 426.481C515.008 429.534 515.503 432.329 515.675 434.866C515.847 437.403 515.933 439.252 515.933 440.413V479.5H498.131ZM450.53 479.5V386.62H466.139V434.35H468.332V479.5H450.53Z" fill="#0F172A"/>
<path d="M147.5 348.5H176L215.5 305.5H193.5L147.5 348.5Z" fill="#0F172A"/>
<path d="M212 289H230.5L272.5 243.5H260.5L212 289Z" fill="#0F172A"/>
<path d="M65 348.5H92L255.5 228.5H304.5L440 83.5L430.5 75L480.5 59L460.61 83.5L323 253H288.5L229.5 348.5H247.5L287.5 283.5H339.5L466 122L485.5 138.5L498 37L400 68L418.5 84.5L298.5 213.5H249.5L65 348.5Z" fill="#0F172A"/>
<path d="M292.5 202.5L334.5 158V89.5H292L292.5 202.5Z" fill="#0F172A"/>
<path d="M235.5 211L246.5 202.5H277V137.5H235.5V211Z" fill="#0F172A"/>
<path d="M178.5 253L220.5 221.5V177.5H178.5V253Z" fill="#0F172A"/>
<path d="M440 83.5L304.5 228.5L293.5 242.5H316.5L460.61 83.5L480.5 59L430.5 75L440 83.5Z" fill="#10B981"/>
<path d="M350 142.5L391 98.5V40H350V142.5Z" fill="#10B981"/>
</svg>
