<svg width="24" height="24" viewBox="0 0 24 24" fill="none" xmlns="http://www.w3.org/2000/svg">
<path d="M13.3663 5.63337C14.0415 4.87552 14.4564 4.53528 15.2713 4.10512V16.7247L13.3663 17.1184V5.63337Z" fill="black"/>
<path d="M19.4529 11.9779C19.8478 11.1443 19.8943 10.7738 20 9.91869L5.39805 13.0894C5.05179 13.8607 4.94033 14.2918 4.88696 15.0576L19.4529 11.9779Z" fill="black"/>
<path d="M19.4529 15.8432C19.8478 15.0097 19.8943 14.6392 20 13.784L13.436 15.1733C13.3896 15.9375 13.4429 16.3295 13.3896 17.0952L19.4529 15.8432Z" fill="black"/>
<path d="M19.4529 19.708C19.8478 18.8744 19.8943 18.5039 20 17.6488L14.0168 18.9476C13.7148 19.3644 13.5289 20.0591 13.3896 20.96L19.4529 19.708Z" fill="black"/>
<path d="M9.95136 18.3919C10.5321 17.6741 11.1361 16.771 11.5543 16.0301L4.51109 17.5567C4.16482 18.328 4.05336 18.7592 4 19.5249L9.95136 18.3919Z" fill="black"/>
<path d="M9.64935 4.56823C10.3245 3.81038 10.7394 3.47014 11.5543 3.03998V16.0764L9.64935 16.47V4.56823Z" fill="black"/>
</svg>
